<?xml version="1.0" encoding="UTF-8" standalone="no"?>
<!-- Created with Inkscape (http://www.inkscape.org/) -->

<svg
   xmlns:dc="http://purl.org/dc/elements/1.1/"
   xmlns:cc="http://creativecommons.org/ns#"
   xmlns:rdf="http://www.w3.org/1999/02/22-rdf-syntax-ns#"
   xmlns:svg="http://www.w3.org/2000/svg"
   xmlns="http://www.w3.org/2000/svg"
   xmlns:sodipodi="http://sodipodi.sourceforge.net/DTD/sodipodi-0.dtd"
   xmlns:inkscape="http://www.inkscape.org/namespaces/inkscape"
   width="210mm"
   height="297mm"
   viewBox="0 0 210 297"
   version="1.1"
   id="svg1683"
   inkscape:version="0.92.4 (f8dce91, 2019-08-02)"
   sodipodi:docname="logo.svg">
  <defs
     id="defs1677" />
  <sodipodi:namedview
     id="base"
     pagecolor="#ffffff"
     bordercolor="#666666"
     borderopacity="1.0"
     inkscape:pageopacity="0.0"
     inkscape:pageshadow="2"
     inkscape:zoom="0.98994949"
     inkscape:cx="646.51186"
     inkscape:cy="553.47543"
     inkscape:document-units="mm"
     inkscape:current-layer="layer1"
     showgrid="false"
     inkscape:window-width="3440"
     inkscape:window-height="1385"
     inkscape:window-x="0"
     inkscape:window-y="27"
     inkscape:window-maximized="1" />
  <metadata
     id="metadata1680">
    <rdf:RDF>
      <cc:Work
         rdf:about="">
        <dc:format>image/svg+xml</dc:format>
        <dc:type
           rdf:resource="http://purl.org/dc/dcmitype/StillImage" />
        <dc:title></dc:title>
      </cc:Work>
    </rdf:RDF>
  </metadata>
  <g
     inkscape:label="Layer 1"
     inkscape:groupmode="layer"
     id="layer1">
    <path
       inkscape:connector-curvature="0"
       style="fill:#ffffff;stroke-width:1.94200993"
       d="m 68.570072,149.83676 a 7.4320724,7.4320724 0 0 1 -7.42429,-7.42428 V 80.975017 a 7.4320724,7.4320724 0 0 1 7.42429,-7.424288 h 61.429668 a 7.3058417,7.3058417 0 0 1 6.76399,4.592857 H 70.168332 a 2.718814,2.718814 0 0 0 -2.57512,1.359346 5.1618626,5.1618626 0 0 0 0.84871,4.969612 10.308189,10.308189 0 0 0 7.55244,4.837568 h 75.115028 a 7.4767384,7.4767384 0 0 1 5.73472,7.21848 v 45.889668 a 7.4320724,7.4320724 0 0 1 -7.42429,7.42429 z"
       id="path1573"
       inkscape:export-xdpi="166.22975"
       inkscape:export-ydpi="166.22975" />
    <path
       inkscape:connector-curvature="0"
       d="m 129.99974,74.521722 a 6.2862865,6.2862865 0 0 1 5.11912,2.645 H 70.168332 a 3.7247753,3.7247753 0 0 0 -3.43154,1.877908 6.1289836,6.1289836 0 0 0 0.89723,5.965855 11.143254,11.143254 0 0 0 8.36034,5.27451 h 74.998448 a 6.4960236,6.4960236 0 0 1 4.8803,6.245505 v 45.88776 a 6.4591253,6.4591253 0 0 1 -6.45329,6.45331 H 68.570072 a 6.4610675,6.4610675 0 0 1 -6.45329,-6.45331 V 80.975017 a 6.4610675,6.4610675 0 0 1 6.45329,-6.453295 h 61.429668 m 0,-1.942058 H 68.570072 a 8.4205552,8.4205552 0 0 0 -8.39536,8.395353 v 61.443243 a 8.4186131,8.4186131 0 0 0 8.39536,8.3953 h 80.849748 a 8.4186131,8.4186131 0 0 0 8.39535,-8.3953 V 96.536298 a 8.4186131,8.4186131 0 0 0 -6.60288,-8.18749 H 75.994362 a 9.36243,9.36243 0 0 1 -6.74263,-4.406423 c -1.40411,-2.114839 -1.6216,-4.827807 0.9166,-4.827807 h 67.917908 a 8.3506429,8.3506429 0 0 0 -8.0865,-6.534914 z"
       id="path1575"
       style="stroke-width:1.94200993"
       inkscape:export-xdpi="166.22975"
       inkscape:export-ydpi="166.22975" />
    <path
       inkscape:connector-curvature="0"
       style="fill:#2cc3ff;stroke-width:1.94200993"
       d="M 98.785792,81.182811 H 140.8944 c 0.46975,0 0.93993,0 1.40992,0 a 9.0264624,9.0264624 0 0 1 5.29778,2.732416 c 1.38466,1.165206 2.68,2.000265 0.46608,2.000265 -28.89513,0 -42.25424,0 -71.149418,0 a 7.0980466,7.0980466 0 0 1 -4.20444,-2.033294 c 0,0 -1.86433,-2.691608 0.38827,-2.693589 z"
       id="path1577"
       inkscape:export-xdpi="166.22975"
       inkscape:export-ydpi="166.22975" />
    <path
       inkscape:connector-curvature="0"
       d="m 127.49067,103.25178 v 19.73086 a 17.089688,17.089688 0 0 1 -9.24787,15.1341 l -9.24782,4.85503 -9.247888,-4.85503 a 17.089688,17.089688 0 0 1 -9.24787,-15.1341 v -19.73086 l 18.495758,-7.263111 z"
       id="path1579"
       style="stroke-width:1.94200993"
       inkscape:export-xdpi="166.22975"
       inkscape:export-ydpi="166.22975" />
    <polygon
       transform="matrix(1.94201,0,0,1.94201,-760.59637,-829.55773)"
       style="fill:#2cc3ff"
       points="448.554,485.344 444.516,490.901 443.616,492.044 443.616,493.825 446.801,493.825 446.801,495.773 447.036,495.773 447.036,495.781 448.523,495.781 448.523,495.773 448.757,495.773 448.757,493.825 451.942,493.825 451.942,491.467 447.005,491.467 451.042,485.91 451.942,484.767 451.942,482.986 448.757,482.986 448.757,481.032 446.801,481.032 446.801,482.986 443.616,482.986 443.616,485.344 "
       id="polygon1581"
       inkscape:export-xdpi="166.22975"
       inkscape:export-ydpi="166.22975" />
    <path
       inkscape:connector-curvature="0"
       d="m 40.93139,182.00614 9.830453,-11.39378 h -9.350799 v -4.33844 h 15.563268 v 4.27238 l -9.644017,11.25204 h 10.335357 l -0.66426,4.33847 H 40.931313 Z"
       id="path1609"
       style="stroke-width:1.94200993" />
    <path
       inkscape:connector-curvature="0"
       d="m 64.961792,177.37445 c 0,2.48381 1.24873,4.91333 3.98893,4.91333 a 3.1305202,3.1305202 0 0 0 3.46449,-2.12264 h 5.50367 a 8.7021469,8.7021469 0 0 1 -9.11386,6.42607 c -6.54263,0 -9.37984,-4.89386 -9.37984,-10.09842 0,-6.22996 3.19651,-10.68107 9.57604,-10.68107 6.82226,0 9.14292,4.93467 9.14292,9.89262 a 11.922,11.922 0 0 1 -0.0735,1.67401 z m 7.67288,-3.37715 c -0.0367,-2.31294 -0.97098,-4.25882 -3.64122,-4.25882 -2.63533,0 -3.68985,1.81773 -3.91511,4.25882 z"
       id="path1611"
       style="stroke-width:1.94200993" />
    <path
       inkscape:connector-curvature="0"
       d="m 99.424722,179.71845 a 8.2671363,8.2671363 0 0 1 -8.93321,6.87864 c -6.18142,0 -9.36055,-4.27248 -9.36055,-10.24801 0,-5.86487 3.57915,-10.53545 9.62464,-10.53545 6.698,0 8.55845,4.80453 8.66715,7.05149 h -5.36963 a 3.1072161,3.1072161 0 0 0 -3.40241,-2.74797 c -2.51487,0 -3.93837,2.20226 -3.93837,6.05326 0,4.22968 1.50696,6.15619 3.91511,6.15619 a 3.3771556,3.3771556 0 0 0 3.39263,-2.60815 z"
       id="path1613"
       style="stroke-width:1.94200993" />
    <path
       inkscape:connector-curvature="0"
       d="m 107.01601,166.27392 c 1.79253,7.9758 2.76742,12.50657 3.1422,14.97092 h 0.0735 c 0.40811,-2.21195 0.97101,-5.3308 3.39463,-14.97092 h 5.11143 c 2.25268,9.76445 2.91297,12.63661 3.19841,14.77678 h 0.0367 c 0.4022,-2.04306 1.01376,-5.02209 3.32862,-14.77678 h 5.4376 l -5.89398,19.86289 h -5.894 c -1.63335,-7.53497 -2.57329,-11.50446 -3.0258,-14.11452 h -0.0294 c -0.31635,2.4877 -1.38849,6.99123 -3.14023,14.11452 h -5.91726 l -5.63182,-19.86289 z"
       id="path1615"
       style="stroke-width:1.94200993" />
    <path
       inkscape:connector-curvature="0"
       style="fill:#2cc3ff;stroke-width:1.94200993"
       d="m 134.54987,186.13681 v -28.28344 h 1.91872 v 28.28344 z"
       id="path1617" />
    <path
       inkscape:connector-curvature="0"
       style="fill:#2cc3ff;stroke-width:1.94200993"
       d="m 142.7607,157.85337 h 1.91866 v 3.72279 h -1.91866 z m 0,9.0964 h 1.91866 v 19.18704 h -1.91866 z"
       id="path1619" />
    <path
       inkscape:connector-curvature="0"
       style="fill:#2cc3ff;stroke-width:1.94200993"
       d="m 148.36139,166.94977 h 3.56947 v -5.98722 h 1.91871 v 5.98722 h 4.57341 v 1.80406 h -4.56569 v 12.46966 c 0,2.14986 0.4602,3.37912 2.30134,3.37912 a 7.3155517,7.3155517 0 0 0 1.99637,-0.23119 v 1.68956 a 6.7970352,6.7970352 0 0 1 -2.379,0.3435 c -2.45466,0 -3.83735,-1.22737 -3.83735,-4.29771 v -13.35331 h -3.56947 z"
       id="path1621" />
    <path
       inkscape:connector-curvature="0"
       style="fill:#2cc3ff;stroke-width:1.94200993"
       d="m 162.52063,176.77244 c 0.0367,4.95016 2.52461,8.0205 6.21445,8.0205 a 5.406556,5.406556 0 0 0 5.52692,-3.60629 h 1.95564 a 7.3563343,7.3563343 0 0 1 -7.55832,5.41044 c -5.82601,0 -8.09816,-5.0279 -8.09816,-9.90428 0,-5.48621 2.71876,-10.20523 8.32732,-10.20523 5.90955,0 7.79136,5.10165 7.79136,8.70987 0,0.5358 0,1.07586 -0.0367,1.573 z m 12.16473,-1.6876 c -0.0367,-3.8005 -2.11093,-6.79709 -5.87262,-6.79709 -3.95201,0 -5.75417,2.76353 -6.17755,6.79709 z"
       id="path1623" />
    <path
       inkscape:connector-curvature="0"
       style="fill:#ffffff;stroke-width:1.94200993"
       d="m 68.570072,149.83676 a 7.4320724,7.4320724 0 0 1 -7.42429,-7.42428 V 80.975017 a 7.4320724,7.4320724 0 0 1 7.42429,-7.424288 h 61.429668 a 7.3058417,7.3058417 0 0 1 6.76399,4.592857 H 70.168332 a 2.718814,2.718814 0 0 0 -2.57512,1.359346 5.1618626,5.1618626 0 0 0 0.84871,4.969612 10.308189,10.308189 0 0 0 7.55244,4.837568 h 75.115028 a 7.4767384,7.4767384 0 0 1 5.73472,7.21848 v 45.889668 a 7.4320724,7.4320724 0 0 1 -7.42429,7.42429 z"
       id="path1573-3"
       inkscape:export-xdpi="166.22975"
       inkscape:export-ydpi="166.22975" />
    <path
       inkscape:connector-curvature="0"
       d="m 129.99974,74.521722 a 6.2862865,6.2862865 0 0 1 5.11912,2.645 H 70.168332 a 3.7247753,3.7247753 0 0 0 -3.43154,1.877908 6.1289836,6.1289836 0 0 0 0.89723,5.965855 11.143254,11.143254 0 0 0 8.36034,5.27451 h 74.998448 a 6.4960236,6.4960236 0 0 1 4.8803,6.245505 v 45.88776 a 6.4591253,6.4591253 0 0 1 -6.45329,6.45331 H 68.570072 a 6.4610675,6.4610675 0 0 1 -6.45329,-6.45331 V 80.975017 a 6.4610675,6.4610675 0 0 1 6.45329,-6.453295 h 61.429668 m 0,-1.942058 H 68.570072 a 8.4205552,8.4205552 0 0 0 -8.39536,8.395353 v 61.443243 a 8.4186131,8.4186131 0 0 0 8.39536,8.3953 h 80.849748 a 8.4186131,8.4186131 0 0 0 8.39535,-8.3953 V 96.536298 a 8.4186131,8.4186131 0 0 0 -6.60288,-8.18749 H 75.994362 a 9.36243,9.36243 0 0 1 -6.74263,-4.406423 c -1.40411,-2.114839 -1.6216,-4.827807 0.9166,-4.827807 h 67.917908 a 8.3506429,8.3506429 0 0 0 -8.0865,-6.534914 z"
       id="path1575-6"
       style="stroke-width:1.94200993"
       inkscape:export-xdpi="166.22975"
       inkscape:export-ydpi="166.22975" />
    <path
       inkscape:connector-curvature="0"
       style="fill:#2cc3ff;stroke-width:1.94200993"
       d="M 98.785792,81.182811 H 140.8944 c 0.46975,0 0.93993,0 1.40992,0 a 9.0264624,9.0264624 0 0 1 5.29778,2.732416 c 1.38466,1.165206 2.68,2.000265 0.46608,2.000265 -28.89513,0 -42.25424,0 -71.149418,0 a 7.0980466,7.0980466 0 0 1 -4.20444,-2.033294 c 0,0 -1.86433,-2.691608 0.38827,-2.693589 z"
       id="path1577-7"
       inkscape:export-xdpi="166.22975"
       inkscape:export-ydpi="166.22975" />
    <path
       inkscape:connector-curvature="0"
       d="m 127.49067,103.25178 v 19.73086 a 17.089688,17.089688 0 0 1 -9.24787,15.1341 l -9.24782,4.85503 -9.247888,-4.85503 a 17.089688,17.089688 0 0 1 -9.24787,-15.1341 v -19.73086 l 18.495758,-7.263111 z"
       id="path1579-5"
       style="stroke-width:1.94200993"
       inkscape:export-xdpi="166.22975"
       inkscape:export-ydpi="166.22975" />
    <polygon
       transform="matrix(1.94201,0,0,1.94201,-760.59637,-829.55773)"
       style="fill:#2cc3ff"
       points="448.554,485.344 444.516,490.901 443.616,492.044 443.616,493.825 446.801,493.825 446.801,495.773 447.036,495.773 447.036,495.781 448.523,495.781 448.523,495.773 448.757,495.773 448.757,493.825 451.942,493.825 451.942,491.467 447.005,491.467 451.042,485.91 451.942,484.767 451.942,482.986 448.757,482.986 448.757,481.032 446.801,481.032 446.801,482.986 443.616,482.986 443.616,485.344 "
       id="polygon1581-3"
       inkscape:export-xdpi="166.22975"
       inkscape:export-ydpi="166.22975" />
    <path
       inkscape:connector-curvature="0"
       d="m 40.93139,182.00614 9.830453,-11.39378 h -9.350799 v -4.33844 h 15.563268 v 4.27238 l -9.644017,11.25204 h 10.335357 l -0.66426,4.33847 H 40.931313 Z"
       id="path1609-2"
       style="stroke-width:1.94200993" />
    <path
       inkscape:connector-curvature="0"
       d="m 64.961792,177.37445 c 0,2.48381 1.24873,4.91333 3.98893,4.91333 a 3.1305202,3.1305202 0 0 0 3.46449,-2.12264 h 5.50367 a 8.7021469,8.7021469 0 0 1 -9.11386,6.42607 c -6.54263,0 -9.37984,-4.89386 -9.37984,-10.09842 0,-6.22996 3.19651,-10.68107 9.57604,-10.68107 6.82226,0 9.14292,4.93467 9.14292,9.89262 a 11.922,11.922 0 0 1 -0.0735,1.67401 z m 7.67288,-3.37715 c -0.0367,-2.31294 -0.97098,-4.25882 -3.64122,-4.25882 -2.63533,0 -3.68985,1.81773 -3.91511,4.25882 z"
       id="path1611-6"
       style="stroke-width:1.94200993" />
    <path
       inkscape:connector-curvature="0"
       d="m 99.424722,179.71845 a 8.2671363,8.2671363 0 0 1 -8.93321,6.87864 c -6.18142,0 -9.36055,-4.27248 -9.36055,-10.24801 0,-5.86487 3.57915,-10.53545 9.62464,-10.53545 6.698,0 8.55845,4.80453 8.66715,7.05149 h -5.36963 a 3.1072161,3.1072161 0 0 0 -3.40241,-2.74797 c -2.51487,0 -3.93837,2.20226 -3.93837,6.05326 0,4.22968 1.50696,6.15619 3.91511,6.15619 a 3.3771556,3.3771556 0 0 0 3.39263,-2.60815 z"
       id="path1613-1"
       style="stroke-width:1.94200993" />
    <path
       inkscape:connector-curvature="0"
       d="m 107.01601,166.27392 c 1.79253,7.9758 2.76742,12.50657 3.1422,14.97092 h 0.0735 c 0.40811,-2.21195 0.97101,-5.3308 3.39463,-14.97092 h 5.11143 c 2.25268,9.76445 2.91297,12.63661 3.19841,14.77678 h 0.0367 c 0.4022,-2.04306 1.01376,-5.02209 3.32862,-14.77678 h 5.4376 l -5.89398,19.86289 h -5.894 c -1.63335,-7.53497 -2.57329,-11.50446 -3.0258,-14.11452 h -0.0294 c -0.31635,2.4877 -1.38849,6.99123 -3.14023,14.11452 h -5.91726 l -5.63182,-19.86289 z"
       id="path1615-8"
       style="stroke-width:1.94200993" />
    <path
       inkscape:connector-curvature="0"
       style="fill:#2cc3ff;stroke-width:1.94200993"
       d="m 134.54987,186.13681 v -28.28344 h 1.91872 v 28.28344 z"
       id="path1617-7" />
    <path
       inkscape:connector-curvature="0"
       style="fill:#2cc3ff;stroke-width:1.94200993"
       d="m 142.7607,157.85337 h 1.91866 v 3.72279 h -1.91866 z m 0,9.0964 h 1.91866 v 19.18704 h -1.91866 z"
       id="path1619-9" />
    <path
       inkscape:connector-curvature="0"
       style="fill:#2cc3ff;stroke-width:1.94200993"
       d="m 148.36139,166.94977 h 3.56947 v -5.98722 h 1.91871 v 5.98722 h 4.57341 v 1.80406 h -4.56569 v 12.46966 c 0,2.14986 0.4602,3.37912 2.30134,3.37912 a 7.3155517,7.3155517 0 0 0 1.99637,-0.23119 v 1.68956 a 6.7970352,6.7970352 0 0 1 -2.379,0.3435 c -2.45466,0 -3.83735,-1.22737 -3.83735,-4.29771 v -13.35331 h -3.56947 z"
       id="path1621-2" />
    <path
       inkscape:connector-curvature="0"
       style="fill:#2cc3ff;stroke-width:1.94200993"
       d="m 162.52063,176.77244 c 0.0367,4.95016 2.52461,8.0205 6.21445,8.0205 a 5.406556,5.406556 0 0 0 5.52692,-3.60629 h 1.95564 a 7.3563343,7.3563343 0 0 1 -7.55832,5.41044 c -5.82601,0 -8.09816,-5.0279 -8.09816,-9.90428 0,-5.48621 2.71876,-10.20523 8.32732,-10.20523 5.90955,0 7.79136,5.10165 7.79136,8.70987 0,0.5358 0,1.07586 -0.0367,1.573 z m 12.16473,-1.6876 c -0.0367,-3.8005 -2.11093,-6.79709 -5.87262,-6.79709 -3.95201,0 -5.75417,2.76353 -6.17755,6.79709 z"
       id="path1623-0" />
  </g>
</svg>
